<svg width="40" height="40" viewBox="0 0 40 40" fill="none" xmlns="http://www.w3.org/2000/svg">
<path fill-rule="evenodd" clip-rule="evenodd" d="M12.6858 6.39901L15.9597 2.87952C17.0123 1.76259 20.079 -0.366172 23.9253 0.0541783C28.7331 0.579616 31.7636 3.95756 32.7107 7.09536C33.6577 10.2332 32.9466 13.0186 32.2183 14.4695C31.4901 15.9203 29.1262 18.7804 26.2262 21.4338L19.9682 20.0198L19.9681 20.02L19.9678 20.0197L13.9031 26.2123C13.1051 26.9419 11.7113 28.999 12.5199 31.3906C13.5307 34.3802 16.6163 34.4336 16.9355 34.4336C17.2547 34.4336 18.5315 34.3268 19.3295 33.6328C19.8724 33.1607 21.3145 31.7046 22.0066 31.0058L22.0069 31.0054L22.007 31.0053L22.0088 31.0036C22.1296 30.8816 22.2274 30.7829 22.2933 30.7167C22.4559 30.8484 22.6176 30.997 22.7912 31.1563L22.7914 31.1565L22.7914 31.1565C23.6022 31.9011 24.6705 32.8821 27.2812 33.4938L23.7451 37.2096C22.6811 38.3129 19.5955 40.4021 15.7651 39.9323C10.9772 39.345 7.99796 35.9284 7.09356 32.7787C6.18917 29.6289 6.93397 26.8529 7.67876 25.4115C8.42356 23.9701 10.8175 21.1407 13.7435 18.5248L19.9667 20.0193L19.9671 20.019L13.7792 13.9065C13.0501 13.102 10.9942 11.697 8.60405 12.5121C5.61632 13.5311 5.56297 16.6415 5.56297 16.9632C5.56297 17.285 5.66967 18.5721 6.36326 19.3765C6.91812 20.02 8.619 21.7831 9.0636 22.23C8.93267 22.393 8.7797 22.563 8.61293 22.7484L8.61291 22.7485C7.82828 23.6208 6.73826 24.8326 6.20202 27.2391L2.78866 23.8276C1.68604 22.755 -0.401814 19.6446 0.0676867 15.7834C0.654562 10.957 4.0691 7.9538 7.21689 7.04213C10.3647 6.13046 13.139 6.88125 14.5795 7.63204C16.02 8.38282 18.8477 10.7961 21.462 13.7456L19.9688 20.0172L25.9677 13.749C26.7584 13.0092 28.1295 10.9343 27.2882 8.55325C26.2365 5.57696 23.1423 5.56337 22.8223 5.56749C22.5023 5.57161 21.2236 5.69484 20.4324 6.39908C19.7995 6.96247 18.0748 8.67986 17.636 9.13041C17.4832 9.01008 17.3176 8.86735 17.1361 8.71092C16.2086 7.91132 14.8657 6.75375 12.6858 6.39901ZM37.0618 15.833L33.507 12.5502C33.0691 14.8561 31.9938 16.0985 31.2192 16.9934L31.2191 16.9935C31.0472 17.1922 30.8901 17.3737 30.7581 17.5459C31.2122 17.9845 33.0147 19.74 33.5832 20.3735C34.2938 21.1653 34.428 22.4538 34.4349 22.7765C34.4417 23.0992 34.4549 26.2196 31.4896 27.3056C29.1174 28.1743 27.032 26.8094 26.2858 26.0183L19.9677 20.02L18.6083 26.3444C21.285 29.2463 24.1636 31.6058 25.6198 32.3278C27.076 33.0499 29.8658 33.7433 32.9934 32.7615C36.1209 31.7797 39.4705 28.6947 39.9541 23.8418C40.341 19.9595 38.1871 16.8849 37.0618 15.833Z" fill="url(#paint0_linear_63_41)"/>
<defs>
<linearGradient id="paint0_linear_63_41" x1="11" y1="3.5" x2="26.84" y2="33.8224" gradientUnits="userSpaceOnUse">
<stop stop-color="#F845C6"/>
<stop offset="0.592286" stop-color="#1179FC"/>
<stop offset="1" stop-color="#18B0A6"/>
</linearGradient>
</defs>
</svg>
